<svg width="76" height="32" viewBox="0 0 76 32" fill="none" xmlns="http://www.w3.org/2000/svg">
<path d="M5.808 2.44C6.61867 2.44 7.312 2.57867 7.888 2.856C8.464 3.12267 8.90667 3.512 9.216 4.024C9.536 4.52533 9.696 5.13333 9.696 5.848C9.696 6.56267 9.536 7.176 9.216 7.688C8.90667 8.18933 8.464 8.57867 7.888 8.856C7.312 9.12267 6.61867 9.256 5.808 9.256H3.584V13H1.376V2.44H5.808ZM5.472 7.512C6.13333 7.512 6.62933 7.37333 6.96 7.096C7.29067 6.808 7.456 6.392 7.456 5.848C7.456 5.29333 7.29067 4.87733 6.96 4.6C6.62933 4.32267 6.13333 4.184 5.472 4.184H3.584V7.512H5.472ZM10.3826 13L14.2386 2.44H16.8786L20.7346 13H18.4466L16.0306 5.816L15.5506 4.216H15.5186L15.0706 5.784L12.6386 13H10.3826ZM12.6546 10.424V8.792H18.4466V10.424H12.6546ZM27.757 2.44C28.9517 2.44 29.8903 2.728 30.573 3.304C31.2557 3.88 31.597 4.65333 31.597 5.624C31.597 6.65867 31.2557 7.45333 30.573 8.008C29.8903 8.552 28.957 8.824 27.773 8.824L27.549 8.952H25.277V13H23.101V2.44H27.757ZM27.501 7.272C28.1197 7.272 28.5783 7.14933 28.877 6.904C29.1863 6.648 29.341 6.25867 29.341 5.736C29.341 5.21333 29.1863 4.82933 28.877 4.584C28.5783 4.328 28.1197 4.2 27.501 4.2H25.277V7.272H27.501ZM28.797 7.736L32.221 13H29.741L26.909 8.376L28.797 7.736ZM43.88 2.44L39.048 7.928L38.872 7.752L36.232 10.744L35.896 8.696L41.32 2.44H43.88ZM36.984 2.44V13H34.776V2.44H36.984ZM39.656 6.088L44.008 13H41.48L37.96 7.32L39.656 6.088ZM48.6434 2.44V13H46.4354V2.44H48.6434ZM61.2605 2.44V13H58.7325L55.0365 6.792L54.1245 5.064H54.1085L54.1725 6.888V13H52.1885V2.44H54.7005L58.3965 8.632L59.3085 10.376H59.3405L59.2765 8.552V2.44H61.2605ZM69.1526 13.16C68.182 13.16 67.3286 12.9467 66.5926 12.52C65.8673 12.0933 65.302 11.4747 64.8966 10.664C64.4913 9.85333 64.2886 8.87733 64.2886 7.736C64.2886 6.60533 64.502 5.63467 64.9286 4.824C65.3553 4.00267 65.958 3.37333 66.7366 2.936C67.526 2.49867 68.438 2.28 69.4726 2.28C70.614 2.28 71.5366 2.49333 72.2406 2.92C72.9446 3.336 73.5046 3.98667 73.9206 4.872L71.8726 5.752C71.702 5.18667 71.4086 4.77067 70.9926 4.504C70.5873 4.22667 70.086 4.088 69.4886 4.088C68.8913 4.088 68.374 4.232 67.9366 4.52C67.4993 4.79733 67.1633 5.208 66.9286 5.752C66.694 6.28533 66.5766 6.94133 66.5766 7.72C66.5766 8.52 66.6886 9.19733 66.9126 9.752C67.1366 10.296 67.4673 10.7067 67.9046 10.984C68.3526 11.2507 68.902 11.384 69.5526 11.384C69.9046 11.384 70.23 11.3413 70.5286 11.256C70.838 11.1707 71.1046 11.0427 71.3286 10.872C71.5526 10.7013 71.7286 10.4827 71.8566 10.216C71.9846 9.94933 72.0486 9.64 72.0486 9.288V9.048H69.2806V7.432H73.9526V13H72.4006L72.2406 10.696L72.6246 10.968C72.39 11.672 71.974 12.216 71.3766 12.6C70.79 12.9733 70.0486 13.16 69.1526 13.16Z" fill="#205CA2"/>
<path d="M3.584 19.44V30H1.376V19.44H3.584ZM15.4011 19.44V30H12.8731L9.17712 23.792L8.26513 22.064H8.24913L8.31313 23.888V30H6.32913V19.44H8.84113L12.5371 25.632L13.4491 27.376H13.4811L13.4171 25.552V19.44H15.4011ZM22.0133 19.28C22.9733 19.28 23.8159 19.4453 24.5413 19.776C25.2666 20.1067 25.8853 20.5973 26.3973 21.248L25.1653 22.672C24.7279 22.1173 24.2479 21.712 23.7253 21.456C23.2133 21.1893 22.6159 21.056 21.9333 21.056C21.4853 21.056 21.1119 21.1147 20.8133 21.232C20.5253 21.3493 20.3119 21.504 20.1733 21.696C20.0453 21.888 19.9813 22.1013 19.9813 22.336C19.9813 22.624 20.0933 22.8693 20.3173 23.072C20.5413 23.264 20.9253 23.424 21.4693 23.552L23.4373 24C24.4826 24.2347 25.2293 24.5867 25.6773 25.056C26.1359 25.5147 26.3653 26.112 26.3653 26.848C26.3653 27.5413 26.1839 28.1387 25.8212 28.64C25.4586 29.1307 24.9519 29.5093 24.3013 29.776C23.6506 30.032 22.9039 30.16 22.0613 30.16C21.3253 30.16 20.6479 30.0747 20.0293 29.904C19.4213 29.7227 18.8773 29.4773 18.3973 29.168C17.9173 28.8587 17.5173 28.5013 17.1973 28.096L18.4453 26.608C18.6906 26.9493 18.9946 27.2533 19.3573 27.52C19.7199 27.7867 20.1306 28 20.5893 28.16C21.0586 28.3093 21.5493 28.384 22.0613 28.384C22.4986 28.384 22.8666 28.336 23.1653 28.24C23.4746 28.1333 23.7039 27.9893 23.8533 27.808C24.0133 27.616 24.0933 27.3867 24.0933 27.12C24.0933 26.8427 23.9973 26.608 23.8053 26.416C23.6239 26.2133 23.2826 26.0587 22.7813 25.952L20.6373 25.472C20.0186 25.3227 19.4853 25.1307 19.0373 24.896C18.5999 24.6507 18.2639 24.3413 18.0293 23.968C17.8053 23.584 17.6933 23.1307 17.6933 22.608C17.6933 21.9787 17.8639 21.4133 18.2053 20.912C18.5466 20.4107 19.0373 20.016 19.6773 19.728C20.3279 19.4293 21.1066 19.28 22.0133 19.28ZM30.6621 19.44V30H28.4541V19.44H30.6621ZM37.7433 30.16C36.7726 30.16 35.9193 29.9467 35.1833 29.52C34.4579 29.0933 33.8926 28.4747 33.4873 27.664C33.0819 26.8533 32.8793 25.8773 32.8793 24.736C32.8793 23.6053 33.0926 22.6347 33.5193 21.824C33.9459 21.0027 34.5486 20.3733 35.3273 19.936C36.1166 19.4987 37.0286 19.28 38.0633 19.28C39.2046 19.28 40.1273 19.4933 40.8313 19.92C41.5353 20.336 42.0953 20.9867 42.5113 21.872L40.4633 22.752C40.2926 22.1867 39.9993 21.7707 39.5833 21.504C39.1779 21.2267 38.6766 21.088 38.0793 21.088C37.4819 21.088 36.9646 21.232 36.5273 21.52C36.0899 21.7973 35.7539 22.208 35.5193 22.752C35.2846 23.2853 35.1673 23.9413 35.1673 24.72C35.1673 25.52 35.2793 26.1973 35.5033 26.752C35.7273 27.296 36.0579 27.7067 36.4953 27.984C36.9433 28.2507 37.4926 28.384 38.1433 28.384C38.4953 28.384 38.8206 28.3413 39.1193 28.256C39.4286 28.1707 39.6953 28.0427 39.9193 27.872C40.1433 27.7013 40.3193 27.4827 40.4473 27.216C40.5753 26.9493 40.6393 26.64 40.6393 26.288V26.048H37.8713V24.432H42.5433V30H40.9913L40.8313 27.696L41.2153 27.968C40.9806 28.672 40.5646 29.216 39.9673 29.6C39.3806 29.9733 38.6393 30.16 37.7433 30.16ZM54.0418 19.44V30H51.8338V19.44H54.0418ZM47.1778 19.44V30H44.9698V19.44H47.1778ZM52.9858 23.776V25.552H46.0738V23.776H52.9858ZM65.1499 19.44V21.216H61.6139V30H59.4059V21.216H55.8539V19.44H65.1499ZM70.5133 19.28C71.4733 19.28 72.3159 19.4453 73.0413 19.776C73.7666 20.1067 74.3853 20.5973 74.8973 21.248L73.6653 22.672C73.2279 22.1173 72.7479 21.712 72.2253 21.456C71.7133 21.1893 71.1159 21.056 70.4333 21.056C69.9853 21.056 69.6119 21.1147 69.3133 21.232C69.0253 21.3493 68.8119 21.504 68.6733 21.696C68.5453 21.888 68.4813 22.1013 68.4813 22.336C68.4813 22.624 68.5933 22.8693 68.8173 23.072C69.0413 23.264 69.4253 23.424 69.9693 23.552L71.9373 24C72.9826 24.2347 73.7293 24.5867 74.1773 25.056C74.6359 25.5147 74.8653 26.112 74.8653 26.848C74.8653 27.5413 74.6839 28.1387 74.3212 28.64C73.9586 29.1307 73.4519 29.5093 72.8013 29.776C72.1506 30.032 71.4039 30.16 70.5613 30.16C69.8253 30.16 69.1479 30.0747 68.5293 29.904C67.9213 29.7227 67.3773 29.4773 66.8973 29.168C66.4173 28.8587 66.0173 28.5013 65.6973 28.096L66.9453 26.608C67.1906 26.9493 67.4946 27.2533 67.8573 27.52C68.2199 27.7867 68.6306 28 69.0893 28.16C69.5586 28.3093 70.0493 28.384 70.5613 28.384C70.9986 28.384 71.3666 28.336 71.6653 28.24C71.9746 28.1333 72.2039 27.9893 72.3533 27.808C72.5133 27.616 72.5933 27.3867 72.5933 27.12C72.5933 26.8427 72.4973 26.608 72.3053 26.416C72.1239 26.2133 71.7826 26.0587 71.2813 25.952L69.1373 25.472C68.5186 25.3227 67.9853 25.1307 67.5373 24.896C67.0999 24.6507 66.7639 24.3413 66.5293 23.968C66.3053 23.584 66.1933 23.1307 66.1933 22.608C66.1933 21.9787 66.3639 21.4133 66.7053 20.912C67.0466 20.4107 67.5373 20.016 68.1773 19.728C68.8279 19.4293 69.6066 19.28 70.5133 19.28Z" fill="#205CA2"/>
</svg>
